<svg width="256" height="256" viewBox="0 0 256 256" fill="none" xmlns="http://www.w3.org/2000/svg">
<rect width="256" height="256" fill="#FFF1D5"/>
<g clip-path="url(#clip0_5_62)">
<path d="M114.369 122.895C120.909 125.1 127.912 125.461 135.378 123.98C144.785 122.114 152.465 117.861 158.458 110.578C160.39 108.236 161.719 106.448 162.447 105.213C166.91 97.6586 168.506 89.4494 167.236 80.5853" stroke="#AA8B6B" stroke-width="1.323"/>
<path d="M167.236 80.5854C166.328 74.4026 164.637 68.4138 162.163 62.6191C158.604 54.2754 154.216 46.3087 148.999 38.7191" stroke="#8B7D6B" stroke-width="1.323"/>
<path d="M148.999 38.7191C143.773 30.5827 137.597 23.2775 130.47 16.8036" stroke="#AA8B6B" stroke-width="1.323"/>
<path d="M130.47 16.8036C129.273 15.5799 125.257 12.2195 123.544 14.0518C122.215 15.4674 123.524 18.6558 123.994 20.2897C125.648 26.0382 124.656 32.8053 122.327 38.2693C118.404 47.4641 110.433 53.8674 102.356 60.231C96.9123 64.5175 92.2156 69.2605 88.928 75.3198C83.8741 84.6536 84.9788 96.6465 90.6016 105.603C96.2728 114.63 104.195 120.394 114.369 122.895" stroke="#8B7D6B" stroke-width="1.323"/>
<path d="M130.47 16.8036L125.231 14.1841C125.137 14.1364 125.035 14.1093 124.93 14.1048C124.825 14.1002 124.72 14.1182 124.622 14.1576C123.573 14.5942 123.251 15.4343 123.657 16.6779C124.808 20.1971 126.084 23.5509 125.767 27.3611C125.189 34.3069 122.85 40.4412 118.748 45.764C117.849 46.9371 116.92 48.0947 115.963 49.2369C113.364 52.3327 110.413 54.595 107.589 57.1418C105.997 58.5751 104.367 59.8782 102.7 61.0513C95.0799 66.3896 87.8233 75.1081 86.7252 84.6072C86.5179 86.3845 86.4341 88.3778 86.4738 90.5872C86.5091 92.4085 86.7582 94.1527 87.2213 95.8196C87.7284 97.6586 88.3216 99.4336 89.0007 101.145C89.2124 101.678 89.3381 102.194 89.3778 102.693C89.3866 102.772 89.4285 102.823 89.5035 102.845C89.5608 102.858 89.6181 102.871 89.6755 102.884C89.7813 102.906 89.8585 102.966 89.907 103.063C91.4461 106.251 93.8429 109.394 97.0975 112.489C102.068 117.221 107.825 120.69 114.369 122.895" stroke="#361701" stroke-width="1.323"/>
<path d="M148.999 38.7191C149.629 40.4743 150.425 42.1523 151.387 43.7531C152.886 46.2448 153.812 47.8434 154.165 48.549C155.664 51.5478 157.201 54.5356 158.776 57.5123C160.35 60.4934 162.046 64.5947 163.863 69.8162C164.449 71.5052 164.952 73.5977 165.371 76.0938C165.389 76.2129 165.457 76.2834 165.576 76.3055C165.655 76.3187 165.688 76.365 165.675 76.4444C165.666 76.4973 165.669 76.5502 165.682 76.6031C166.048 77.957 166.328 79.3881 166.522 80.8963C166.557 81.1829 166.685 81.2336 166.906 81.0484C167.02 80.9514 167.13 80.797 167.236 80.5854" stroke="#361701" stroke-width="1.323"/>
<path d="M61.8131 77.1059C57.1253 78.6935 52.6183 80.5567 48.2921 82.6956" stroke="#AA8B6B" stroke-width="1.323"/>
<path d="M48.2922 82.6956C36.147 88.3778 20.1255 100.252 23.3735 115.903C23.4333 116.193 23.4282 116.492 23.3584 116.779C23.2886 117.066 23.156 117.334 22.97 117.563C15.0188 127.486 12.4257 138.387 18.2932 150.4C22.4011 158.801 30.2928 166.183 38.2175 171.145C52.3538 180.002 68.0644 185.975 84.2909 189.237C90.6193 190.507 96.5309 191.525 102.026 192.293C119.569 194.745 137.601 194.729 156.123 192.246C167.832 190.676 179.549 187.914 191.275 183.958C201.365 180.553 210.644 175.973 219.111 170.218" stroke="#8B7D6B" stroke-width="1.323"/>
<path d="M219.111 170.218C224.866 166.263 229.964 161.467 234.405 155.831C237.972 151.302 240.054 146.118 240.649 140.279C241.562 131.349 237.924 123.854 232.367 116.829C232.217 116.644 232.182 116.439 232.261 116.214C232.5 115.539 232.652 114.851 232.718 114.15C233.322 107.504 231.212 101.48 226.387 96.0776C217.894 86.5719 205.325 80.3538 193.954 76.9603" stroke="#AA8B6B" stroke-width="1.323"/>
<path d="M193.954 76.9604C187.569 73.9483 180.81 71.3729 173.679 69.234C173.626 69.2167 173.57 69.2151 173.516 69.2296C173.463 69.244 173.414 69.2739 173.377 69.3156C173.339 69.3573 173.314 69.4092 173.304 69.465C173.295 69.5209 173.301 69.5785 173.322 69.6309C174.292 71.9462 175.128 74.2394 175.829 76.5105C176.841 79.8114 177.099 83.1454 177.245 86.5918C177.662 96.6135 174.685 105.941 168.506 114.011C162.07 122.419 154.192 128.471 144.004 131.68C129.429 136.266 115.344 135.168 101.748 128.385C91.8563 123.45 84.5644 115.998 79.8721 106.027C76.6705 99.233 75.5922 92.3402 76.4324 84.7197C77.0409 79.1587 78.5359 74.2284 80.9173 69.9286C81.3671 69.1216 81.1643 68.8945 80.3087 69.2473C76.6043 70.7908 73.0477 72.1887 69.6388 73.4412C66.9862 74.4202 64.4129 75.8424 61.8132 77.1059" stroke="#FBB974" stroke-width="1.323"/>
<path d="M193.954 76.9603C194.576 77.8908 195.676 78.8412 197.255 79.8114C201.392 82.3427 205.733 85.9258 210.28 90.5607C220.295 100.781 223.325 113.845 212.092 124.476C207.219 129.089 201.954 132.828 196.296 135.695C189.831 138.976 183.708 141.534 177.926 143.368C166.581 146.973 154.066 149.355 141.782 150.387C136.944 150.792 133.264 151.015 130.741 151.055C110.632 151.399 90.8905 148.122 71.5174 141.225C60.0867 137.157 47.5579 130.165 40.3211 120.467C32.8792 110.492 37.4833 99.0478 44.8457 90.8716C49.6041 85.5929 55.1651 81.249 61.5287 77.8401C61.6743 77.7607 61.7911 77.6792 61.8793 77.5954C62.2013 77.2867 62.1792 77.1235 61.8132 77.1059" stroke="#A6530A" stroke-width="1.323"/>
<path d="M219.111 170.218C216.835 171.136 213.912 172.712 210.34 174.948C207.623 176.646 203.486 178.547 197.93 180.65C193.714 182.242 189.443 183.748 185.117 185.168C182.57 186.002 179.911 186.266 177.384 187.212C174.076 188.443 170.484 188.952 167.038 189.7C166.35 189.845 165.629 189.693 164.974 189.865C162.434 190.535 160.776 190.895 159.999 190.943C157.583 191.106 154.957 191.439 152.121 191.942C151.451 192.061 150.653 192.143 149.726 192.187C148.902 192.222 148.09 192.279 147.292 192.359C145.396 192.54 143.559 192.716 141.782 192.888C139.894 193.069 138.053 193.175 136.258 193.206C131.54 193.289 126.693 193.331 121.719 193.331C120.052 193.338 118.398 192.981 116.724 193.067C115.489 193.133 114.274 193.051 113.079 192.822C111.655 192.553 110.195 192.381 108.7 192.306C107.241 192.231 105.735 192.079 104.182 191.849C102.365 191.585 100.542 191.345 98.7116 191.128C96.3898 190.851 94.2267 190.308 91.9313 190.004C89.9379 189.744 88.2423 189.466 86.8443 189.17C82.4255 188.235 77.9648 187.179 73.4622 186.002C72.1877 185.667 70.9287 185.369 69.6851 185.109C69.4897 185.07 69.3055 184.981 69.1492 184.851C68.9817 184.71 68.792 184.613 68.5804 184.56C67.1295 184.198 65.705 183.695 64.3071 183.052C64.0998 182.955 63.8837 182.919 63.6588 182.946C63.3677 182.981 63.1186 182.904 62.9113 182.714C62.7393 182.551 62.5409 182.43 62.316 182.35C55.0792 179.784 48.1356 176.313 41.4854 171.938C41.0422 171.647 40.7445 171.197 40.2682 171.012C39.4965 170.708 38.7313 170.307 37.9728 169.808C35.6377 168.267 33.2232 166.693 31.2189 164.768C29.8298 163.436 28.4296 162.137 27.0184 160.871C25.5234 159.54 23.6822 157.328 21.4949 154.237C18.8886 150.552 16.5204 145.247 16.064 140.762C15.1952 132.136 17.6891 124.648 23.5455 118.297C24.2203 117.563 24.3129 116.664 24.1541 115.737C23.4882 111.927 23.7263 108.562 24.8685 105.643C27.4881 98.9574 32.1957 93.3038 38.9915 88.6821C41.2847 87.1254 43.6639 85.7142 46.1291 84.4485C46.4334 84.2942 46.7509 84.1509 47.0816 84.0186C47.4389 83.8774 47.8424 83.4364 48.2922 82.6956" stroke="#361701" stroke-width="1.323"/>
<path d="M223.616 132.645L222.908 133.585" stroke="#A6530A" stroke-width="1.323"/>
<path d="M222.908 133.585C220.086 136.566 216.961 139.234 213.534 141.589C207.771 145.553 201.627 148.801 195.105 151.333C184.667 155.385 173.966 158.558 163.003 160.852C158.019 161.897 151.598 162.774 143.74 163.484" stroke="#AA8B6B" stroke-width="1.323"/>
<path d="M143.74 163.484C137.636 163.246 131.551 163.143 125.482 163.173C121.258 163.196 117.597 163.054 114.502 162.75C110.881 162.397 107.302 162.007 103.765 161.579C98.4822 160.94 90.9213 159.485 81.0826 157.213C79.2569 156.79 77.2173 156.212 74.9638 155.48C72.9175 154.814 70.9044 154.17 68.9243 153.549C64.8362 152.257 59.3458 149.849 52.453 146.325C50.0583 145.104 46.6913 142.958 42.3519 139.889C42.1182 139.726 41.9462 139.523 41.8359 139.28C41.6816 138.958 41.45 138.709 41.1413 138.533C39.7831 137.765 38.4667 136.974 37.1922 136.158C36.566 135.757 36.1073 135.172 35.8163 134.405C35.7787 134.303 35.7199 134.209 35.6436 134.131C35.5673 134.052 35.4751 133.99 35.3731 133.948C33.7855 133.322 32.7249 132.597 32.1913 131.772C31.3357 130.445 30.4559 129.629 29.5519 129.325" stroke="#361701" stroke-width="1.323"/>
<path d="M29.552 129.325L27.2632 125.931C26.9853 125.517 26.8089 125.556 26.734 126.05C25.5521 133.688 27.1265 140.464 31.4571 146.378C33.5121 149.178 35.4084 151.394 37.146 153.026C41.4523 157.081 46.4665 160.984 51.7386 163.868C58.0185 167.303 64.5232 170.097 71.2528 172.249C78.364 174.518 86.4012 177.025 94.3722 178.368C105.737 180.286 116.68 181.292 127.202 181.385C143.436 181.53 159.387 179.574 175.055 175.517C179.421 174.384 183.525 173.083 187.366 171.614C191.498 170.031 195.485 168.346 199.326 166.56C206.739 163.112 213.01 158.929 218.139 154.012C221.239 151.044 223.883 147.772 226.07 144.195C229.457 138.678 229.801 132.103 228.948 125.865C228.881 125.367 228.705 125.322 228.418 125.733L223.616 132.645" stroke="#A23E0A" stroke-width="1.323"/>
<path d="M29.5519 129.325L33.0909 133.955" stroke="#83300A" stroke-width="1.323"/>
<path d="M33.0909 133.955C34.9431 138.828 38.2154 143.282 42.9076 147.317C53.7032 156.611 66.9464 162.525 80.6924 166.064C90.8839 168.688 102.028 170.576 114.125 171.727C118.389 172.132 122.852 172.34 127.513 172.348C140.518 172.384 153.391 171.083 166.132 168.446C175.313 166.541 183.796 163.919 191.579 160.58C198.269 157.714 204.543 154.078 210.399 149.672C213.058 147.675 215.457 145.346 217.596 142.687C219.759 140.001 221.34 136.839 223.206 133.849" stroke="#F7A474" stroke-width="1.323"/>
<path d="M223.206 133.849C223.827 133.417 223.964 133.016 223.616 132.645" stroke="#F36C13" stroke-width="1.323"/>
<path d="M143.74 163.484C121.297 165.178 99.2783 163.008 77.6826 156.975C69.2551 154.625 61.4141 151.637 54.1597 148.012C47.0155 144.44 39.9926 139.754 33.0909 133.955" stroke="#8B7D6B" stroke-width="1.323"/>
<path d="M223.206 133.849C223.263 133.435 223.164 133.346 222.908 133.585" stroke="#FBB974" stroke-width="1.323"/>
<path d="M14 13H241.556V194.251H14V13ZM114.369 122.895C120.909 125.1 127.912 125.461 135.378 123.98C144.785 122.114 152.465 117.861 158.458 110.578C160.39 108.236 161.719 106.448 162.447 105.213C166.91 97.6586 168.506 89.4494 167.236 80.5853C166.328 74.4025 164.636 68.4137 162.162 62.619C158.604 54.2753 154.216 46.3087 148.999 38.7191C143.773 30.5826 137.597 23.2775 130.47 16.8036C129.273 15.5798 125.257 12.2194 123.544 14.0518C122.215 15.4674 123.524 18.6558 123.994 20.2897C125.648 26.0381 124.656 32.8053 122.327 38.2693C118.404 47.4641 110.433 53.8674 102.356 60.231C96.9123 64.5175 92.2156 69.2605 88.928 75.3198C83.8741 84.6535 84.9788 96.6465 90.6016 105.603C96.2728 114.63 104.195 120.394 114.369 122.895ZM61.8131 77.1058C57.1253 78.6934 52.6183 80.5567 48.2921 82.6955C36.147 88.3778 20.1255 100.252 23.3734 115.903C23.4333 116.193 23.4281 116.492 23.3583 116.779C23.2886 117.066 23.1559 117.334 22.9699 117.563C15.0187 127.486 12.4256 138.387 18.2931 150.4C22.401 158.801 30.2927 166.183 38.2175 171.145C52.3537 180.002 68.0643 185.975 84.2909 189.236C90.6192 190.507 96.5308 191.525 102.026 192.293C119.569 194.745 137.601 194.729 156.123 192.246C167.832 190.676 179.549 187.913 191.275 183.958C201.365 180.553 210.644 175.973 219.111 170.218C224.866 166.263 229.964 161.467 234.405 155.831C237.972 151.302 240.054 146.118 240.649 140.279C241.562 131.349 237.924 123.854 232.367 116.829C232.217 116.644 232.182 116.439 232.262 116.214C232.5 115.539 232.652 114.851 232.718 114.15C233.322 107.504 231.212 101.48 226.387 96.0776C217.894 86.5719 205.325 80.3538 193.954 76.9603C187.568 73.9483 180.81 71.3729 173.679 69.234C173.626 69.2167 173.57 69.2151 173.516 69.2296C173.462 69.244 173.414 69.2738 173.376 69.3156C173.339 69.3573 173.314 69.4091 173.304 69.465C173.295 69.5209 173.301 69.5784 173.322 69.6309C174.292 71.9462 175.128 74.2393 175.829 76.5105C176.841 79.8114 177.099 83.1453 177.245 86.5917C177.661 96.6134 174.685 105.941 168.506 114.011C162.07 122.419 154.191 128.471 144.004 131.679C129.429 136.266 115.344 135.168 101.748 128.385C91.8562 123.45 84.5643 115.998 79.872 106.027C76.6704 99.233 75.5921 92.3402 76.4322 84.7197C77.0408 79.1587 78.5358 74.2283 80.9172 69.9286C81.367 69.1216 81.1642 68.8944 80.3086 69.2472C76.6042 70.7907 73.0476 72.1887 69.6387 73.4411C66.986 74.4202 64.4128 75.8424 61.8131 77.1058Z" fill="#FFF1D5"/>
<path d="M130.47 16.8036L125.231 14.1841C125.137 14.1364 125.035 14.1094 124.93 14.1048C124.825 14.1002 124.72 14.1182 124.622 14.1576C123.573 14.5942 123.251 15.4343 123.657 16.678C124.808 20.1971 126.084 23.5509 125.767 27.3612C125.189 34.3069 122.85 40.4412 118.748 45.7641C117.849 46.9371 116.92 48.0947 115.963 49.2369C113.364 52.3327 110.413 54.5951 107.589 57.1418C105.997 58.5751 104.367 59.8782 102.7 61.0513C95.0799 66.3896 87.8233 75.1081 86.7252 84.6073C86.5179 86.3845 86.4341 88.3778 86.4738 90.5872C86.5091 92.4085 86.7583 94.1527 87.2213 95.8197C87.7285 97.6586 88.3216 99.4336 89.0007 101.145C89.2124 101.678 89.3381 102.194 89.3778 102.693C89.3866 102.772 89.4285 102.823 89.5035 102.845C89.5608 102.858 89.6181 102.871 89.6755 102.884C89.7813 102.907 89.8585 102.966 89.907 103.063C91.4461 106.251 93.8429 109.394 97.0975 112.489C102.068 117.221 107.825 120.69 114.369 122.895C104.195 120.394 96.2728 114.63 90.6016 105.603C84.9788 96.6465 83.8741 84.6536 88.928 75.3198C92.2156 69.2605 96.9123 64.5175 102.356 60.231C110.433 53.8674 118.404 47.4641 122.327 38.2693C124.656 32.8053 125.648 26.0382 123.994 20.2897C123.524 18.6558 122.215 15.4674 123.544 14.0518C125.257 12.2195 129.273 15.5799 130.47 16.8036Z" fill="#170900"/>
<path d="M130.47 16.8036C137.597 23.2775 143.773 30.5826 148.999 38.7191C149.629 40.4742 150.425 42.1522 151.387 43.7531C152.886 46.2447 153.812 47.8433 154.165 48.5489C155.664 51.5477 157.201 54.5355 158.776 57.5122C160.35 60.4934 162.046 64.5947 163.863 69.8161C164.449 71.5051 164.952 73.5977 165.371 76.0937C165.388 76.2128 165.457 76.2834 165.576 76.3054C165.655 76.3187 165.688 76.365 165.675 76.4443C165.666 76.4973 165.668 76.5502 165.682 76.6031C166.048 77.957 166.328 79.388 166.522 80.8962C166.557 81.1829 166.685 81.2336 166.905 81.0484C167.02 80.9514 167.13 80.797 167.236 80.5853C168.506 89.4494 166.91 97.6586 162.447 105.213C161.719 106.448 160.39 108.236 158.458 110.578C152.465 117.861 144.785 122.114 135.378 123.98C127.912 125.461 120.909 125.1 114.369 122.895C107.825 120.69 102.068 117.221 97.0975 112.489C93.8429 109.394 91.4461 106.251 89.907 103.063C89.8585 102.966 89.7813 102.906 89.6755 102.884C89.6181 102.871 89.5608 102.858 89.5035 102.845C89.4285 102.823 89.3866 102.772 89.3778 102.693C89.3381 102.194 89.2124 101.678 89.0007 101.145C88.3216 99.4336 87.7284 97.6586 87.2213 95.8196C86.7582 94.1527 86.5091 92.4085 86.4738 90.5872C86.4341 88.3778 86.5179 86.3845 86.7252 84.6072C87.8233 75.1081 95.0799 66.3896 102.7 61.0513C104.367 59.8782 105.997 58.5751 107.589 57.1418C110.413 54.595 113.364 52.3327 115.963 49.2369C116.92 48.0947 117.849 46.9371 118.748 45.764C122.85 40.4412 125.189 34.3069 125.767 27.3611C126.084 23.5509 124.808 20.1971 123.657 16.6779C123.251 15.4343 123.573 14.5942 124.622 14.1576C124.72 14.1182 124.825 14.1002 124.93 14.1048C125.035 14.1093 125.137 14.1364 125.231 14.1841L130.47 16.8036Z" fill="#552501"/>
<path d="M148.999 38.7191C154.216 46.3087 158.603 54.2753 162.162 62.619C164.636 68.4137 166.328 74.4025 167.236 80.5853C167.13 80.797 167.02 80.9513 166.905 81.0484C166.685 81.2336 166.557 81.1829 166.522 80.8962C166.328 79.388 166.048 77.957 165.682 76.6031C165.668 76.5502 165.666 76.4972 165.675 76.4443C165.688 76.3649 165.655 76.3186 165.576 76.3054C165.457 76.2834 165.388 76.2128 165.371 76.0937C164.952 73.5977 164.449 71.5051 163.862 69.8161C162.045 64.5947 160.35 60.4934 158.775 57.5122C157.201 54.5355 155.664 51.5477 154.165 48.5489C153.812 47.8433 152.886 46.2447 151.387 43.7531C150.425 42.1522 149.629 40.4742 148.999 38.7191Z" fill="#170900"/>
<path d="M193.954 76.9603C194.576 77.8908 195.676 78.8412 197.255 79.8114C201.392 82.3427 205.733 85.9258 210.28 90.5607C220.295 100.781 223.325 113.845 212.092 124.476C207.219 129.089 201.954 132.828 196.296 135.695C189.831 138.976 183.708 141.534 177.926 143.368C166.581 146.973 154.066 149.355 141.782 150.387C136.944 150.792 133.264 151.015 130.741 151.055C110.632 151.399 90.8905 148.122 71.5174 141.225C60.0867 137.157 47.5579 130.165 40.3211 120.467C32.8792 110.492 37.4833 99.0477 44.8457 90.8716C49.6041 85.5929 55.1651 81.249 61.5287 77.8401C61.6743 77.7607 61.7911 77.6791 61.8793 77.5953C62.2013 77.2866 62.1792 77.1235 61.8132 77.1058C64.4129 75.8424 66.9861 74.4201 69.6387 73.4411C73.0476 72.1887 76.6043 70.7907 80.3087 69.2472C81.1642 68.8944 81.3671 69.1215 80.9173 69.9286C78.5359 74.2283 77.0409 79.1587 76.4323 84.7197C75.5922 92.3401 76.6704 99.233 79.8721 106.027C84.5643 115.998 91.8562 123.45 101.748 128.385C115.344 135.168 129.429 136.266 144.004 131.679C154.191 128.471 162.07 122.418 168.506 114.011C174.685 105.941 177.661 96.6134 177.245 86.5917C177.099 83.1453 176.841 79.8114 175.829 76.5105C175.128 74.2393 174.292 71.9461 173.322 69.6309C173.301 69.5784 173.295 69.5209 173.304 69.465C173.314 69.4091 173.339 69.3573 173.376 69.3155C173.414 69.2738 173.462 69.244 173.516 69.2295C173.57 69.2151 173.626 69.2166 173.679 69.234C180.81 71.3728 187.569 73.9483 193.954 76.9603Z" fill="#F78113"/>
<path d="M193.954 76.9603C205.325 80.3538 217.894 86.5719 226.387 96.0776C231.212 101.48 233.322 107.504 232.718 114.15C232.652 114.851 232.5 115.539 232.261 116.214C232.182 116.439 232.217 116.644 232.367 116.829C237.924 123.854 241.562 131.349 240.649 140.279C240.054 146.118 237.972 151.302 234.405 155.831C229.964 161.467 224.866 166.263 219.111 170.218C216.835 171.136 213.912 172.712 210.339 174.948C207.623 176.646 203.486 178.547 197.93 180.65C193.714 182.242 189.443 183.748 185.116 185.168C182.57 186.002 179.91 186.266 177.384 187.212C174.076 188.443 170.484 188.952 167.038 189.7C166.35 189.845 165.629 189.693 164.974 189.865C162.434 190.535 160.776 190.895 159.999 190.943C157.583 191.106 154.957 191.439 152.121 191.942C151.451 192.061 150.652 192.143 149.726 192.187C148.902 192.222 148.09 192.279 147.292 192.359C145.396 192.54 143.559 192.716 141.782 192.888C139.894 193.069 138.053 193.175 136.258 193.206C131.539 193.289 126.693 193.331 121.718 193.331C120.051 193.338 118.398 192.981 116.724 193.067C115.489 193.133 114.274 193.051 113.079 192.822C111.655 192.553 110.195 192.381 108.7 192.306C107.24 192.231 105.734 192.079 104.182 191.849C102.365 191.585 100.542 191.344 98.7115 191.128C96.3896 190.851 94.2265 190.308 91.9311 190.004C89.9378 189.744 88.2422 189.466 86.8442 189.17C82.4254 188.235 77.9647 187.179 73.4621 186.002C72.1876 185.667 70.9286 185.369 69.6849 185.109C69.4896 185.07 69.3053 184.981 69.1491 184.851C68.9815 184.71 68.7919 184.613 68.5802 184.56C67.1293 184.198 65.7049 183.695 64.307 183.051C64.0997 182.954 63.8836 182.919 63.6587 182.946C63.3676 182.981 63.1185 182.904 62.9112 182.714C62.7392 182.551 62.5407 182.43 62.3158 182.35C55.079 179.784 48.1355 176.313 41.4852 171.938C41.042 171.647 40.7444 171.197 40.2681 171.012C39.4963 170.708 38.7312 170.307 37.9727 169.808C35.6376 168.267 33.2231 166.693 31.2188 164.768C29.8296 163.436 28.4295 162.137 27.0183 160.871C25.5233 159.54 23.6821 157.328 21.4948 154.237C18.8884 150.552 16.5203 145.247 16.0638 140.762C15.1951 132.136 17.6889 124.648 23.5454 118.297C24.2201 117.563 24.3127 116.663 24.154 115.737C23.4881 111.927 23.7262 108.562 24.8684 105.643C27.4879 98.9574 32.1956 93.3038 38.9914 88.6821C41.2846 87.1254 43.6638 85.7142 46.129 84.4485C46.4333 84.2941 46.7508 84.1508 47.0815 84.0185C47.4387 83.8774 47.8422 83.4364 48.2921 82.6955C52.6183 80.5567 57.1253 78.6935 61.8131 77.1059C62.1791 77.1235 62.2012 77.2867 61.8792 77.5954C61.791 77.6792 61.6742 77.7607 61.5287 77.8401C55.165 81.249 49.604 85.5929 44.8457 90.8716C37.4832 99.0478 32.8791 110.492 40.321 120.467C47.5578 130.165 60.0866 137.157 71.5173 141.225C90.8904 148.122 110.632 151.399 130.741 151.055C133.264 151.015 136.944 150.792 141.782 150.387C154.066 149.355 166.581 146.973 177.926 143.368C183.707 141.534 189.831 138.976 196.296 135.695C201.954 132.828 207.219 129.089 212.092 124.476C223.325 113.845 220.295 100.781 210.28 90.5607C205.733 85.9258 201.392 82.3427 197.255 79.8114C195.676 78.8412 194.576 77.8908 193.954 76.9603ZM223.616 132.645L222.908 133.585C220.085 136.566 216.961 139.234 213.534 141.589C207.771 145.553 201.627 148.801 195.105 151.333C184.667 155.385 173.966 158.558 163.003 160.852C158.019 161.897 151.598 162.774 143.74 163.484C137.636 163.246 131.551 163.143 125.482 163.173C121.258 163.196 117.597 163.054 114.501 162.75C110.881 162.397 107.302 162.007 103.765 161.579C98.4822 160.94 90.9213 159.484 81.0826 157.213C79.2568 156.79 77.2172 156.212 74.9637 155.48C72.9175 154.814 70.9043 154.17 68.9242 153.549C64.8361 152.257 59.3457 149.849 52.4529 146.325C50.0583 145.104 46.6912 142.958 42.3518 139.889C42.1181 139.726 41.9461 139.523 41.8358 139.28C41.6815 138.958 41.45 138.709 41.1413 138.533C39.783 137.765 38.4666 136.974 37.1921 136.158C36.5659 135.757 36.1073 135.172 35.8162 134.405C35.7787 134.303 35.7199 134.209 35.6435 134.131C35.5672 134.052 35.4751 133.99 35.373 133.948C33.7854 133.322 32.7248 132.597 32.1912 131.772C31.3357 130.445 30.4559 129.629 29.5518 129.325L27.263 125.931C26.9852 125.517 26.8088 125.556 26.7338 126.05C25.5519 133.688 27.1263 140.464 31.4569 146.378C33.512 149.178 35.4083 151.394 37.1458 153.026C41.4522 157.081 46.4663 160.984 51.7385 163.868C58.0183 167.303 64.523 170.097 71.2527 172.249C78.3638 174.518 86.401 177.025 94.3721 178.368C105.737 180.286 116.68 181.292 127.202 181.385C143.435 181.53 159.386 179.574 175.055 175.517C179.421 174.384 183.524 173.083 187.366 171.614C191.498 170.031 195.484 168.346 199.325 166.56C206.739 163.112 213.01 158.929 218.138 154.012C221.239 151.044 223.882 147.772 226.07 144.195C229.457 138.678 229.801 132.103 228.947 125.865C228.881 125.367 228.705 125.322 228.418 125.733L223.616 132.645Z" fill="#552501"/>
<path d="M48.2922 82.6955C47.8423 83.4364 47.4388 83.8774 47.0816 84.0185C46.7509 84.1508 46.4333 84.2941 46.1291 84.4485C43.6639 85.7141 41.2847 87.1253 38.9915 88.6821C32.1957 93.3037 27.488 98.9573 24.8685 105.643C23.7263 108.562 23.4882 111.927 24.1541 115.737C24.3128 116.663 24.2202 117.563 23.5455 118.297C17.689 124.648 15.1952 132.136 16.0639 140.762C16.5204 145.247 18.8885 150.552 21.4948 154.237C23.6822 157.328 25.5234 159.54 27.0184 160.871C28.4296 162.137 29.8297 163.436 31.2189 164.768C33.2232 166.693 35.6377 168.267 37.9728 169.808C38.7313 170.307 39.4964 170.708 40.2682 171.012C40.7445 171.197 41.0421 171.647 41.4853 171.938C48.1356 176.313 55.0791 179.784 62.3159 182.35C62.5408 182.43 62.7393 182.551 62.9113 182.714C63.1185 182.904 63.3677 182.981 63.6588 182.946C63.8837 182.919 64.0998 182.954 64.307 183.051C65.705 183.695 67.1294 184.198 68.5803 184.56C68.792 184.613 68.9816 184.71 69.1492 184.851C69.3054 184.981 69.4896 185.07 69.685 185.109C70.9286 185.369 72.1877 185.667 73.4622 186.002C77.9648 187.179 82.4255 188.235 86.8443 189.17C88.2423 189.466 89.9379 189.744 91.9312 190.004C94.2266 190.308 96.3897 190.851 98.7116 191.128C100.542 191.344 102.365 191.585 104.182 191.849C105.735 192.079 107.241 192.231 108.7 192.306C110.195 192.381 111.655 192.553 113.079 192.822C114.274 193.051 115.489 193.133 116.724 193.067C118.398 192.981 120.052 193.338 121.719 193.331C126.693 193.331 131.54 193.289 136.258 193.205C138.053 193.175 139.894 193.069 141.782 192.888C143.559 192.716 145.396 192.54 147.292 192.359C148.09 192.279 148.902 192.222 149.726 192.187C150.652 192.143 151.451 192.061 152.121 191.942C154.957 191.439 157.583 191.106 159.999 190.943C160.776 190.895 162.434 190.535 164.974 189.865C165.629 189.693 166.35 189.845 167.038 189.7C170.484 188.952 174.076 188.443 177.384 187.212C179.911 186.266 182.57 186.002 185.117 185.168C189.443 183.748 193.714 182.242 197.93 180.65C203.486 178.547 207.623 176.646 210.34 174.948C213.912 172.712 216.835 171.136 219.111 170.218C210.644 175.973 201.365 180.553 191.275 183.958C179.549 187.913 167.832 190.676 156.123 192.246C137.601 194.729 119.569 194.745 102.026 192.293C96.5309 191.525 90.6193 190.507 84.2909 189.236C68.0644 185.975 52.3538 180.002 38.2175 171.144C30.2928 166.183 22.4011 158.801 18.2932 150.4C12.4257 138.387 15.0188 127.486 22.97 117.563C23.156 117.334 23.2886 117.066 23.3584 116.779C23.4282 116.492 23.4333 116.193 23.3735 115.903C20.1255 100.252 36.147 88.3778 48.2922 82.6955Z" fill="#170900"/>
<path d="M29.5518 129.325L33.0909 133.955C34.9431 138.828 38.2153 143.282 42.9075 147.317C53.7032 156.611 66.9464 162.525 80.6923 166.064C90.8838 168.688 102.028 170.576 114.124 171.727C118.389 172.132 122.852 172.34 127.513 172.348C140.518 172.384 153.391 171.083 166.131 168.446C175.313 166.54 183.796 163.919 191.579 160.58C198.269 157.714 204.542 154.078 210.399 149.672C213.058 147.675 215.457 145.346 217.596 142.687C219.759 140.001 221.34 136.839 223.206 133.849C223.827 133.417 223.964 133.016 223.616 132.645L228.418 125.733C228.705 125.322 228.881 125.367 228.947 125.865C229.801 132.103 229.457 138.678 226.07 144.195C223.883 147.772 221.239 151.044 218.139 154.012C213.01 158.929 206.739 163.112 199.325 166.56C195.484 168.346 191.498 170.031 187.366 171.614C183.524 173.083 179.421 174.384 175.055 175.517C159.386 179.574 143.435 181.53 127.202 181.385C116.68 181.292 105.737 180.286 94.3721 178.368C86.401 177.025 78.3638 174.518 71.2527 172.249C64.5231 170.097 58.0183 167.303 51.7385 163.868C46.4664 160.984 41.4522 157.081 37.1458 153.026C35.4083 151.394 33.512 149.178 31.457 146.378C27.1263 140.464 25.552 133.688 26.7339 126.05C26.8088 125.556 26.9852 125.517 27.2631 125.931L29.5518 129.325Z" fill="#EE5613"/>
<path d="M143.74 163.484C121.297 165.178 99.2783 163.008 77.6825 156.975C69.255 154.625 61.4141 151.637 54.1596 148.012C47.0154 144.44 39.9925 139.754 33.0909 133.955L29.5519 129.325C30.4559 129.629 31.3357 130.445 32.1913 131.772C32.7249 132.597 33.7855 133.322 35.3731 133.948C35.4751 133.99 35.5673 134.052 35.6436 134.131C35.7199 134.209 35.7787 134.303 35.8163 134.405C36.1073 135.172 36.566 135.757 37.1922 136.158C38.4667 136.974 39.7831 137.765 41.1413 138.533C41.45 138.709 41.6816 138.958 41.8359 139.28C41.9462 139.523 42.1182 139.726 42.3519 139.889C46.6913 142.958 50.0583 145.104 52.453 146.325C59.3458 149.849 64.8362 152.257 68.9243 153.549C70.9044 154.17 72.9175 154.814 74.9638 155.48C77.2173 156.212 79.2569 156.79 81.0826 157.213C90.9213 159.485 98.4822 160.94 103.765 161.579C107.302 162.007 110.881 162.397 114.502 162.75C117.597 163.054 121.258 163.196 125.482 163.173C131.551 163.143 137.636 163.246 143.74 163.484Z" fill="#170900"/>
<path d="M223.616 132.645C223.964 133.016 223.827 133.417 223.206 133.849C223.263 133.435 223.164 133.346 222.908 133.585L223.616 132.645Z" fill="#F78113"/>
<path d="M222.908 133.585C223.164 133.346 223.263 133.435 223.206 133.849C221.34 136.839 219.759 140.001 217.596 142.687C215.457 145.346 213.058 147.675 210.399 149.672C204.542 154.078 198.269 157.714 191.579 160.58C183.796 163.919 175.313 166.54 166.131 168.446C153.391 171.083 140.518 172.384 127.513 172.348C122.852 172.34 118.389 172.132 114.124 171.727C102.028 170.576 90.8838 168.688 80.6923 166.064C66.9463 162.525 53.7031 156.611 42.9075 147.317C38.2152 143.282 34.943 138.828 33.0908 133.955C39.9925 139.754 47.0154 144.44 54.1596 148.012C61.414 151.637 69.2549 154.625 77.6824 156.975C99.2782 163.008 121.297 165.178 143.74 163.484C151.598 162.774 158.019 161.897 163.003 160.852C173.966 158.558 184.667 155.385 195.105 151.333C201.627 148.801 207.771 145.553 213.534 141.589C216.961 139.234 220.085 136.566 222.908 133.585Z" fill="#FFF1D5"/>
</g>
<path d="M67.1087 220.937H61.4268C61.3511 220.354 61.1958 219.827 60.9609 219.357C60.7261 218.888 60.4155 218.486 60.0291 218.153C59.6427 217.819 59.1844 217.566 58.6541 217.391C58.1314 217.21 57.5518 217.119 56.9155 217.119C55.7867 217.119 54.8132 217.395 53.995 217.948C53.1844 218.501 52.5594 219.3 52.12 220.346C51.6882 221.391 51.4723 222.657 51.4723 224.141C51.4723 225.687 51.692 226.982 52.1314 228.028C52.5784 229.066 53.2034 229.85 54.0064 230.38C54.817 230.903 55.7753 231.164 56.8814 231.164C57.5026 231.164 58.067 231.085 58.5746 230.925C59.0897 230.766 59.5405 230.535 59.9268 230.232C60.3208 229.922 60.6427 229.547 60.8927 229.107C61.1503 228.66 61.3284 228.157 61.4268 227.596L67.1087 227.63C67.0102 228.66 66.7109 229.675 66.2109 230.675C65.7185 231.675 65.0405 232.588 64.1768 233.414C63.3132 234.232 62.2602 234.884 61.0177 235.369C59.7829 235.854 58.3662 236.096 56.7677 236.096C54.6617 236.096 52.7753 235.634 51.1087 234.71C49.4496 233.778 48.139 232.422 47.1768 230.641C46.2147 228.861 45.7337 226.694 45.7337 224.141C45.7337 221.581 46.2223 219.41 47.1996 217.63C48.1768 215.85 49.4988 214.497 51.1655 213.573C52.8321 212.649 54.6996 212.187 56.7677 212.187C58.1768 212.187 59.4799 212.384 60.6768 212.778C61.8738 213.164 62.9268 213.732 63.8359 214.482C64.745 215.225 65.4837 216.138 66.0518 217.221C66.62 218.304 66.9723 219.543 67.1087 220.937ZM69.5274 235.778V212.505H79.141C80.8835 212.505 82.3873 212.819 83.6524 213.448C84.9251 214.069 85.9062 214.963 86.5956 216.13C87.285 217.289 87.6297 218.664 87.6297 220.255C87.6297 221.869 87.2774 223.24 86.5729 224.369C85.8683 225.49 84.8683 226.346 83.5729 226.937C82.2774 227.52 80.7433 227.812 78.9706 227.812H72.891V223.38H77.9251C78.7736 223.38 79.482 223.27 80.0501 223.05C80.6259 222.823 81.0615 222.482 81.357 222.028C81.6524 221.566 81.8001 220.975 81.8001 220.255C81.8001 219.535 81.6524 218.941 81.357 218.471C81.0615 217.994 80.6259 217.638 80.0501 217.403C79.4744 217.16 78.766 217.039 77.9251 217.039H75.1524V235.778H69.5274ZM82.6297 225.141L88.4251 235.778H82.2888L76.6069 225.141H82.6297ZM89.9149 235.778V212.505H106.142V217.073H95.5399V221.846H105.313V226.425H95.5399V231.21H106.142V235.778H89.9149ZM100.335 210.414L98.074 207.778L95.824 210.414H91.1649V210.266L96.0854 205.175H100.074L104.983 210.266V210.414H100.335ZM108.865 235.778V212.505H118.479C120.221 212.505 121.725 212.846 122.99 213.528C124.263 214.202 125.244 215.145 125.933 216.357C126.622 217.562 126.967 218.963 126.967 220.562C126.967 222.168 126.615 223.573 125.91 224.778C125.213 225.975 124.217 226.903 122.922 227.562C121.626 228.221 120.088 228.55 118.308 228.55H112.376V224.119H117.263C118.111 224.119 118.819 223.971 119.388 223.675C119.963 223.38 120.399 222.967 120.694 222.437C120.99 221.899 121.138 221.274 121.138 220.562C121.138 219.842 120.99 219.221 120.694 218.698C120.399 218.168 119.963 217.759 119.388 217.471C118.812 217.183 118.104 217.039 117.263 217.039H114.49V235.778H108.865ZM128.94 235.778V212.505H145.167V217.073H134.565V221.846H144.338V226.425H134.565V231.21H145.167V235.778H128.94ZM159.06 222.005V226.278H148.288V222.005H159.06ZM162.184 235.778V212.505H171.797C173.54 212.505 175.043 212.819 176.309 213.448C177.581 214.069 178.562 214.963 179.252 216.13C179.941 217.289 180.286 218.664 180.286 220.255C180.286 221.869 179.934 223.24 179.229 224.369C178.525 225.49 177.525 226.346 176.229 226.937C174.934 227.52 173.4 227.812 171.627 227.812H165.547V223.38H170.581C171.43 223.38 172.138 223.27 172.706 223.05C173.282 222.823 173.718 222.482 174.013 222.028C174.309 221.566 174.456 220.975 174.456 220.255C174.456 219.535 174.309 218.941 174.013 218.471C173.718 217.994 173.282 217.638 172.706 217.403C172.131 217.16 171.422 217.039 170.581 217.039H167.809V235.778H162.184ZM175.286 225.141L181.081 235.778H174.945L169.263 225.141H175.286ZM188.196 212.505V235.778H182.571V212.505H188.196ZM190.848 235.778V232.573L202.155 217.073H190.859V212.505H209.268V215.71L197.962 231.21H209.257V235.778H190.848Z" fill="#4E342E"/>
<defs>
<clipPath id="clip0_5_62">
<rect width="227.556" height="181.251" fill="white" transform="translate(14 13)"/>
</clipPath>
</defs>
</svg>
